<?xml version="1.0" standalone="no"?>
<svg xmlns:xlink="http://www.w3.org/1999/xlink" id="wave" style="transform:rotate(180deg); transition: 0.3s" viewBox="0 0 1440 360" version="1.1" xmlns="http://www.w3.org/2000/svg"><defs><linearGradient id="sw-gradient-0" x1="0" x2="0" y1="1" y2="0"><stop stop-color="rgba(66, 133, 244, 1)" offset="0%"/><stop stop-color="rgba(40, 109, 224, 1)" offset="100%"/></linearGradient></defs><path style="transform:translate(0, 0px); opacity:1" fill="url(#sw-gradient-0)" d="M0,180L30,174C60,168,120,156,180,174C240,192,300,240,360,264C420,288,480,288,540,276C600,264,660,240,720,240C780,240,840,264,900,270C960,276,1020,264,1080,240C1140,216,1200,180,1260,174C1320,168,1380,192,1440,180C1500,168,1560,120,1620,132C1680,144,1740,216,1800,216C1860,216,1920,144,1980,126C2040,108,2100,144,2160,132C2220,120,2280,60,2340,42C2400,24,2460,48,2520,60C2580,72,2640,72,2700,72C2760,72,2820,72,2880,96C2940,120,3000,168,3060,156C3120,144,3180,72,3240,42C3300,12,3360,24,3420,42C3480,60,3540,84,3600,114C3660,144,3720,180,3780,186C3840,192,3900,168,3960,186C4020,204,4080,264,4140,288C4200,312,4260,300,4290,294L4320,288L4320,360L4290,360C4260,360,4200,360,4140,360C4080,360,4020,360,3960,360C3900,360,3840,360,3780,360C3720,360,3660,360,3600,360C3540,360,3480,360,3420,360C3360,360,3300,360,3240,360C3180,360,3120,360,3060,360C3000,360,2940,360,2880,360C2820,360,2760,360,2700,360C2640,360,2580,360,2520,360C2460,360,2400,360,2340,360C2280,360,2220,360,2160,360C2100,360,2040,360,1980,360C1920,360,1860,360,1800,360C1740,360,1680,360,1620,360C1560,360,1500,360,1440,360C1380,360,1320,360,1260,360C1200,360,1140,360,1080,360C1020,360,960,360,900,360C840,360,780,360,720,360C660,360,600,360,540,360C480,360,420,360,360,360C300,360,240,360,180,360C120,360,60,360,30,360L0,360Z"/></svg>